<svg id="SvgjsSvg1011" xmlns="http://www.w3.org/2000/svg" version="1.1" xmlns:xlink="http://www.w3.org/1999/xlink" xmlns:svgjs="http://svgjs.com/svgjs" width="33" height="23" viewBox="0 0 33 23"><title>black_stripe</title><desc>Created with Avocode.</desc><defs id="SvgjsDefs1012"></defs><path id="SvgjsPath1013" d="M472 251L472 232L501 232L501 251Z " fill="#000000" fill-opacity="1" transform="matrix(1,0,0,1,-470,-230)"></path><path id="SvgjsPath1014" d="M472 251L472 238L501 238L501 251Z " fill="#dd0000" fill-opacity="1" transform="matrix(1,0,0,1,-470,-230)"></path><path id="SvgjsPath1015" d="M472 251L472 245L501 245L501 251Z " fill="#ffce00" fill-opacity="1" transform="matrix(1,0,0,1,-470,-230)"></path><path id="SvgjsPath1016" d="M472.06 250.91L500.94 250.91L500.94 232.09L472.06 232.09ZM470 230L503 230L503 253L470 253Z " fill="#eceef4" fill-opacity="1" transform="matrix(1,0,0,1,-470,-230)"></path></svg>