<svg id="SvgjsSvg1000" xmlns="http://www.w3.org/2000/svg" version="1.1" xmlns:xlink="http://www.w3.org/1999/xlink" xmlns:svgjs="http://svgjs.com/svgjs" width="33" height="23" viewBox="0 0 33 23"><title>Rectangle-path</title><desc>Created with Avocode.</desc><defs id="SvgjsDefs1001"></defs><path id="SvgjsPath1007" d="M642 251L642 232L652 232L652 251Z " fill="#009246" fill-opacity="1" transform="matrix(1,0,0,1,-640,-230)"></path><path id="SvgjsPath1008" d="M652 251L652 232L662 232L662 251Z " fill="#ffffff" fill-opacity="1" transform="matrix(1,0,0,1,-640,-230)"></path><path id="SvgjsPath1009" d="M661 251L661 232L671 232L671 251Z " fill="#ce2b37" fill-opacity="1" transform="matrix(1,0,0,1,-640,-230)"></path><path id="SvgjsPath1010" d="M642.06 250.91L670.9399999999999 250.91L670.9399999999999 232.09L642.06 232.09ZM640 230L673 230L673 253L640 253Z " fill="#eceef4" fill-opacity="1" transform="matrix(1,0,0,1,-640,-230)"></path></svg>