<?xml version="1.0" encoding="UTF-8"?>
<svg width="10px" height="10px" viewBox="0 0 10 10" version="1.1" xmlns="http://www.w3.org/2000/svg" xmlns:xlink="http://www.w3.org/1999/xlink">
    <!-- Generator: Sketch 41.2 (35397) - http://www.bohemiancoding.com/sketch -->
    <title>Shape</title>
    <desc>Created with Sketch.</desc>
    <defs></defs>
    <g id="Page-1" stroke="none" stroke-width="1" fill="none" fill-rule="evenodd">
        <g id="Dashboard" transform="translate(-102.000000, -130.000000)" fill="#FFFFFF">
            <g id="1480367223_07-skype" transform="translate(102.000000, 130.000000)">
                <path d="M9.6994,6.03627451 C9.7702,5.71784314 9.8072,5.38862745 9.8072,5.05019608 C9.8072,2.51333333 7.7096,0.456666667 5.1216,0.456666667 C4.8486,0.456666667 4.581,0.48 4.32,0.52372549 C3.9016,0.264901961 3.4058,0.114509804 2.8746,0.114509804 C1.3736,0.114509804 0.157,1.30745098 0.157,2.77921569 C0.157,3.27078431 0.2936,3.73098039 0.5304,4.12647059 C0.468,4.42470588 0.4356,4.73392157 0.4356,5.05019608 C0.4356,7.58764706 2.5332,9.64431373 5.1214,9.64431373 C5.4148,9.64431373 5.701,9.61784314 5.9792,9.56745098 C6.362,9.76882353 6.7992,9.88333333 7.264,9.88333333 C8.7648,9.88333333 9.9812,8.69058824 9.9812,7.21921569 C9.9814,6.79411765 9.8798,6.39294118 9.6994,6.03627451 Z M7.5248,7.24568627 C7.3084,7.54627451 6.988,7.78470588 6.5728,7.95372549 C6.1618,8.12117647 5.6692,8.20627451 5.1088,8.20627451 C4.4358,8.20627451 3.8712,8.09 3.431,7.86098039 C3.116,7.6945098 2.8566,7.46901961 2.6594,7.18960784 C2.4606,6.90862745 2.3598,6.62941176 2.3598,6.35980392 C2.3598,6.19176471 2.4254,6.04568627 2.555,5.92627451 C2.6834,5.80784314 2.8478,5.74784314 3.0442,5.74784314 C3.2052,5.74784314 3.3442,5.79490196 3.457,5.88823529 C3.5648,5.97823529 3.657,6.11098039 3.7316,6.28215686 C3.8148,6.46901961 3.905,6.62647059 4.0008,6.74980392 C4.093,6.86941176 4.225,6.96960784 4.3938,7.04803922 C4.5638,7.12666667 4.793,7.16686275 5.0742,7.16686275 C5.4618,7.16686275 5.7796,7.08588235 6.0184,6.92588235 C6.252,6.76980392 6.3648,6.58215686 6.3648,6.3527451 C6.3648,6.17137255 6.3058,6.02921569 6.1844,5.91686275 C6.0562,5.79980392 5.8884,5.70941176 5.684,5.64647059 C5.4712,5.58156863 5.182,5.51098039 4.8246,5.43745098 C4.3378,5.3354902 3.925,5.21431373 3.5964,5.07764706 C3.26,4.9372549 2.9892,4.7427451 2.7912,4.5 C2.5902,4.2527451 2.488,3.94372549 2.488,3.57941176 C2.488,3.23235294 2.595,2.91921569 2.8062,2.64980392 C3.0156,2.38176471 3.3218,2.17313725 3.7158,2.03078431 C4.1044,1.88980392 4.567,1.81823529 5.0908,1.81823529 C5.5092,1.81823529 5.8768,1.86607843 6.1842,1.95921569 C6.4932,2.05333333 6.7534,2.18078431 6.958,2.33745098 C7.1638,2.4954902 7.3174,2.66392157 7.4138,2.83960784 C7.5106,3.01647059 7.5598,3.19294118 7.5598,3.36333333 C7.5598,3.52764706 7.4954,3.67686275 7.3676,3.8072549 C7.239,3.93784314 7.0774,4.00411765 6.8864,4.00411765 C6.713,4.00411765 6.577,3.96235294 6.4828,3.88117647 C6.3952,3.8045098 6.3042,3.68607843 6.2032,3.51568627 C6.0864,3.29843137 5.945,3.12666667 5.7828,3.00568627 C5.625,2.88784314 5.3618,2.82882353 5,2.82882353 C4.6644,2.82882353 4.391,2.89470588 4.1882,3.0254902 C3.9928,3.15078431 3.8976,3.29490196 3.8976,3.46568627 C3.8976,3.57058824 3.9284,3.65764706 3.9918,3.73294118 C4.0582,3.81313725 4.1524,3.88254902 4.2708,3.94117647 C4.3938,4.00215686 4.5212,4.05019608 4.6482,4.08431373 C4.7782,4.12 4.9966,4.17235294 5.2962,4.24019608 C5.6754,4.32019608 6.0244,4.40941176 6.3322,4.50627451 C6.6446,4.60431373 6.9138,4.7245098 7.1342,4.86509804 C7.3584,5.00823529 7.5362,5.19196078 7.6624,5.41196078 C7.789,5.63254902 7.853,5.90470588 7.853,6.22117647 C7.853,6.59882353 7.7424,6.94431373 7.5248,7.24568627 Z" id="Shape"></path>
            </g>
        </g>
    </g>
</svg>