<?xml version="1.0" encoding="UTF-8"?>
<svg width="19px" height="15px" viewBox="0 0 19 15" version="1.1" xmlns="http://www.w3.org/2000/svg" xmlns:xlink="http://www.w3.org/1999/xlink">
    <!-- Generator: Sketch 41.2 (35397) - http://www.bohemiancoding.com/sketch -->
    <title>news_disactive</title>
    <desc>Created with Sketch.</desc>
    <defs></defs>
    <g id="Symbols" stroke="none" stroke-width="1" fill-rule="evenodd">
        <g id="news_disactive">
            <path d="M5.36589231,13.404 L16.3120846,13.404 C16.8945077,13.404 17.3680462,12.8847143 17.3680462,12.2475714 L17.3680462,2.58542857 C17.3680462,1.94757143 16.8945077,1.42828571 16.3120846,1.42828571 L6.49639231,1.42828571 C5.91396923,1.42828571 5.44043077,1.94757143 5.44043077,2.58542857 C5.44043077,2.58471429 5.45212308,12.049 5.45212308,12.7832857 C5.45212308,13.0018571 5.42216154,13.2097143 5.36589231,13.404 M16.3120846,14.8325714 L3.44689231,14.8325714 L3.44689231,13.404 C3.96427692,13.404 3.99058462,12.8868571 3.99058462,12.7832857 C3.99058462,12.049 3.97889231,2.58542857 3.97889231,2.58542857 C3.97889231,1.15971429 5.10793077,-0.000285714286 6.49639231,-0.000285714286 L16.3120846,-0.000285714286 C17.7005462,-0.000285714286 18.8295846,1.15971429 18.8295846,2.58542857 L18.8295846,12.2475714 C18.8295846,13.6725714 17.7005462,14.8325714 16.3120846,14.8325714" id="Fill-1"></path>
            <path d="M4.49846923,14.8325714 L3.12827692,14.8325714 C0.967392308,14.8325714 -0.000146153846,13.4111429 -0.000146153846,12.0018571 L-0.000146153846,5.134 L4.71331538,5.134 L4.71331538,6.56257143 L1.46139231,6.56257143 L1.46139231,12.0018571 C1.46139231,12.5261429 1.67843077,13.404 3.12827692,13.404 L4.49846923,13.404 L4.49846923,14.8325714 Z" id="Fill-3"></path>
            <path d="M14.1932923,8.13542857 L8.66502308,8.13542857 C8.26090769,8.13542857 7.93425385,7.81614286 7.93425385,7.42114286 C7.93425385,7.02614286 8.26090769,6.70685714 8.66502308,6.70685714 L14.1932923,6.70685714 C14.5966769,6.70685714 14.9240615,7.02614286 14.9240615,7.42114286 C14.9240615,7.81614286 14.5966769,8.13542857 14.1932923,8.13542857" id="Fill-6"></path>
            <path d="M14.1932923,5.05928571 L8.66502308,5.05928571 C8.26090769,5.05928571 7.93425385,4.74 7.93425385,4.345 C7.93425385,3.95 8.26090769,3.63071429 8.66502308,3.63071429 L14.1932923,3.63071429 C14.5966769,3.63071429 14.9240615,3.95 14.9240615,4.345 C14.9240615,4.74 14.5966769,5.05928571 14.1932923,5.05928571" id="Fill-8"></path>
            <path d="M14.1932923,11.2116429 L8.66502308,11.2116429 C8.26090769,11.2116429 7.93425385,10.8923571 7.93425385,10.4973571 C7.93425385,10.1023571 8.26090769,9.78307143 8.66502308,9.78307143 L14.1932923,9.78307143 C14.5966769,9.78307143 14.9240615,10.1023571 14.9240615,10.4973571 C14.9240615,10.8923571 14.5966769,11.2116429 14.1932923,11.2116429" id="Fill-10"></path>
        </g>
    </g>
</svg>