<?xml version="1.0" encoding="UTF-8"?>
<svg width="19px" height="16px" viewBox="0 0 19 16" version="1.1" xmlns="http://www.w3.org/2000/svg" xmlns:xlink="http://www.w3.org/1999/xlink">
    <!-- Generator: Sketch 41.2 (35397) - http://www.bohemiancoding.com/sketch -->
    <title>support_disactive</title>
    <desc>Created with Sketch.</desc>
    <defs></defs>
    <g id="Symbols" stroke="none" stroke-width="1" fill-rule="evenodd">
        <g id="support_disactive" >
            <path d="M16.030148,15.6974545 C15.713228,15.6974545 15.403148,15.5789091 15.169068,15.3549091 L15.087748,15.2618182 L13.511508,13.1396364 L7.175388,13.1396364 C6.676068,13.1396364 6.270228,12.7512727 6.270228,12.2741818 L6.270228,9.14254545 L7.790228,9.14254545 L7.790228,11.6850909 L13.649068,11.6850909 C13.988028,11.6850909 14.307228,11.8116364 14.546628,12.0414545 L14.628708,12.1345455 L15.730708,13.6174545 L15.730708,12.8501818 C15.730708,12.208 16.276388,11.6850909 16.948228,11.6850909 L17.299348,11.6850909 L17.299348,6.14181818 L14.041228,6.14181818 L14.041228,4.68727273 L17.914188,4.68727273 C18.413508,4.68727273 18.819348,5.07636364 18.819348,5.55345455 L18.819348,12.2741818 C18.819348,12.7512727 18.413508,13.1396364 17.914188,13.1396364 L17.250708,13.1396364 L17.250708,14.5301818 C17.250708,15.0036364 16.955068,15.4269091 16.497548,15.6087273 C16.346308,15.6683636 16.187468,15.6974545 16.030148,15.6974545" id="Fill-3"></path>
            <path d="M1.52,8.41549091 L2.09304,8.41549091 C2.81732,8.41549091 3.40632,8.97912727 3.40632,9.67294545 L3.40632,10.9485818 L5.1072,8.78785455 C5.35724,8.54785455 5.68936,8.41549091 6.04352,8.41549091 L13.26428,8.41549091 L13.26428,1.45476364 L1.52,1.45476364 L1.52,8.41549091 Z M3.19884,12.8133091 C3.03012,12.8133091 2.85988,12.7820364 2.69724,12.7173091 C2.20476,12.5224 1.88632,12.0671273 1.88632,11.5573091 L1.88632,9.87003636 L0.93404,9.87003636 C0.41876,9.87003636 0,9.46930909 0,8.97621818 L0,0.893309091 C0,0.400218182 0.41876,0.000218181818 0.93404,0.000218181818 L13.85024,0.000218181818 C14.36552,0.000218181818 14.78428,0.400218182 14.78428,0.893309091 L14.78428,8.97621818 C14.78428,9.46930909 14.36552,9.87003636 13.85024,9.87003636 L6.14992,9.87003636 L4.12604,12.4438545 C3.87448,12.6853091 3.54008,12.8133091 3.19884,12.8133091 L3.19884,12.8133091 Z" id="Fill-1"></path>
            <path d="M4.883228,4.83025455 C4.883228,5.23898182 4.536668,5.57134545 4.109548,5.57134545 C3.681668,5.57134545 3.335108,5.23898182 3.335108,4.83025455 C3.335108,4.42152727 3.681668,4.08916364 4.109548,4.08916364 C4.536668,4.08916364 4.883228,4.42152727 4.883228,4.83025455" id="Fill-6"></path>
            <path d="M8.166276,4.83025455 C8.166276,5.23898182 7.819716,5.57134545 7.391836,5.57134545 C6.964716,5.57134545 6.618156,5.23898182 6.618156,4.83025455 C6.618156,4.42152727 6.964716,4.08916364 7.391836,4.08916364 C7.819716,4.08916364 8.166276,4.42152727 8.166276,4.83025455" id="Fill-8"></path>
            <path d="M11.449324,4.83025455 C11.449324,5.23898182 11.102764,5.57134545 10.674884,5.57134545 C10.247764,5.57134545 9.901204,5.23898182 9.901204,4.83025455 C9.901204,4.42152727 10.247764,4.08916364 10.674884,4.08916364 C11.102764,4.08916364 11.449324,4.42152727 11.449324,4.83025455" id="Fill-10"></path>
        </g>
    </g>
</svg>