<?xml version="1.0" encoding="UTF-8"?>
<svg width="21px" height="16px" viewBox="0 0 21 16" version="1.1" xmlns="http://www.w3.org/2000/svg" xmlns:xlink="http://www.w3.org/1999/xlink">
    <!-- Generator: Sketch 41.2 (35397) - http://www.bohemiancoding.com/sketch -->
    <title>payments_disactive</title>
    <desc>Created with Sketch.</desc>
    <defs></defs>
    <g id="Symbols" stroke="none" stroke-width="1" fill-rule="evenodd">
        <g id="payments_disactive">
            <path d="M18.054931,13.2173913 L2.17241379,13.2173913 C1.77268966,13.2173913 1.44827586,12.9064348 1.44827586,12.5217391 C1.44827586,12.1370435 1.77268966,11.826087 2.17241379,11.826087 L18.054931,11.826087 C18.4546552,11.826087 18.779069,12.1370435 18.779069,12.5217391 C18.779069,12.9064348 18.4546552,13.2173913 18.054931,13.2173913" id="Fill-5"></path>
            <path d="M19.7667931,16 L0.724137931,16 C0.324413793,16 0,15.6890435 0,15.3043478 C0,14.9196522 0.324413793,14.6086957 0.724137931,14.6086957 L19.7667931,14.6086957 C20.1665172,14.6086957 20.490931,14.9196522 20.490931,15.3043478 C20.490931,15.6890435 20.1665172,16 19.7667931,16" id="Fill-7"></path>
            <path d="M10.5820116,1.3893913 C10.4596323,1.3893913 10.337253,1.41443478 10.2257357,1.46452174 L10.2250116,1.46452174 L2.89818401,4.74173913 L10.4480461,4.69165217 L18.1478047,4.69165217 L10.9397357,1.46452174 C10.8274944,1.41443478 10.7043909,1.3893913 10.5820116,1.3893913 M18.2260116,6.08295652 L2.93873574,6.08295652 C2.22835643,6.08295652 1.62949436,5.63565217 1.48249436,4.99634783 C1.33766677,4.36956522 1.66135643,3.76086957 2.2870116,3.48121739 L9.61311505,0.204 C10.2199426,-0.068 10.9448047,-0.068 11.5509081,0.204 L18.8770116,3.48121739 C19.5026668,3.76086957 19.8263564,4.36956522 19.682253,4.99634783 C19.5345288,5.63565217 18.9356668,6.08295652 18.2260116,6.08295652" id="Fill-3"></path>
            <path d="M5.54544828,11.9607652 L7.84313793,11.9607652 L7.84313793,6.0832 L5.54544828,6.0832 L5.54544828,11.9607652 Z M4.09717241,13.0397217 L9.29141379,13.0397217 L9.29141379,5.38754783 L4.09717241,5.38754783 L4.09717241,13.0397217 Z" id="Fill-1"></path>
            <path d="M13.0373793,11.9607652 L15.335069,11.9607652 L15.335069,6.0832 L13.0373793,6.0832 L13.0373793,11.9607652 Z M11.5898276,12.3440696 L16.784069,12.3440696 L16.784069,5.38754783 L11.5898276,5.38754783 L11.5898276,12.3440696 Z" id="Fill-2"></path>
        </g>
    </g>
</svg>