<?xml version="1.0" encoding="UTF-8"?>
<svg width="19px" height="18px" viewBox="0 0 19 18" version="1.1" xmlns="http://www.w3.org/2000/svg" xmlns:xlink="http://www.w3.org/1999/xlink">
    <!-- Generator: Sketch 41.2 (35397) - http://www.bohemiancoding.com/sketch -->
    <title>promo_disactive</title>
    <desc>Created with Sketch.</desc>
    <defs></defs>
    <g id="Symbols" stroke="none" stroke-width="1" fill-rule="evenodd">
        <g id="promo_disactive">
            <path d="M1.45474231,15.1524 L0.421434615,14.0919 L3.27216538,11.16615 C3.92766538,10.4949 4.99312692,10.4949 5.64716538,11.1654 L7.04878077,12.6039 C7.15474231,12.71265 7.25193462,12.7119 7.35716538,12.60465 L13.0250115,6.7869 C13.6805115,6.1149 14.7467038,6.1149 15.4007423,6.7869 L18.5393962,10.00815 L17.5060885,11.06865 L14.3674346,7.8474 C14.2819346,7.75965 14.1438192,7.75965 14.0583192,7.8474 L8.39047308,13.6644 C7.75689615,14.3154 6.64978077,14.31615 6.01547308,13.6644 L4.61458846,12.22665 C4.52908846,12.13815 4.39024231,12.1389 4.30547308,12.22665 L1.45474231,15.1524 Z" id="Fill-1"></path>
            <path d="M6.78278077,4.577325 C5.97966538,4.577325 5.32635769,5.247825 5.32635769,6.072075 C5.32635769,6.896325 5.97966538,7.566825 6.78278077,7.566825 C7.58589615,7.566825 8.23993462,6.896325 8.23993462,6.072075 C8.23993462,5.247825 7.58589615,4.577325 6.78278077,4.577325 M6.78278077,9.066825 C5.17362692,9.066825 3.86481923,7.723575 3.86481923,6.072075 C3.86481923,4.421325 5.17362692,3.077325 6.78278077,3.077325 C8.39193462,3.077325 9.70147308,4.421325 9.70147308,6.072075 C9.70147308,7.723575 8.39193462,9.066825 6.78278077,9.066825" id="Fill-3"></path>
            <path d="M2.19230769,1.5 C1.78965385,1.5 1.46153846,1.83675 1.46153846,2.25 L1.46153846,15.0795 C1.46153846,15.49275 1.78965385,15.8295 2.19230769,15.8295 L16.5614231,15.8295 C16.9640769,15.8295 17.2921923,15.49275 17.2921923,15.0795 L17.2921923,2.25 C17.2921923,1.83675 16.9640769,1.5 16.5614231,1.5 L2.19230769,1.5 Z M16.5614231,17.3295 L2.19230769,17.3295 C0.983615385,17.3295 0,16.32 0,15.0795 L0,2.25 C0,1.0095 0.983615385,0 2.19230769,0 L16.5614231,0 C17.7701154,0 18.7537308,1.0095 18.7537308,2.25 L18.7537308,15.0795 C18.7537308,16.32 17.7701154,17.3295 16.5614231,17.3295 L16.5614231,17.3295 Z" id="Fill-5"></path>
        </g>
    </g>
</svg>