<?xml version="1.0" encoding="UTF-8"?>
<svg width="19px" height="19px" viewBox="0 0 19 19" version="1.1" xmlns="http://www.w3.org/2000/svg" xmlns:xlink="http://www.w3.org/1999/xlink">
    <!-- Generator: Sketch 41.2 (35397) - http://www.bohemiancoding.com/sketch -->
    <title>statistic_disactive</title>
    <desc>Created with Sketch.</desc>
    <defs></defs>
    <g id="Symbols" stroke="none" stroke-width="1" fill-rule="evenodd">
        <g id="statistic_disactive">
            <path d="M15.8307269,1.52 C15.4280731,1.52 15.0999577,1.86124 15.0999577,2.28 L15.0999577,16.10668 C15.0999577,16.30808 15.1759577,16.49808 15.3148038,16.64248 C15.45365,16.78688 15.6363423,16.86592 15.8299962,16.86592 L15.8307269,16.86592 L16.5614962,16.86592 C16.96415,16.86592 17.2922654,16.52544 17.2922654,16.10592 L17.2922654,2.28 C17.2922654,1.86124 16.96415,1.52 16.5614962,1.52 L15.8307269,1.52 Z M15.8299962,18.38592 C15.2461115,18.38592 14.6965731,18.1488 14.2814962,17.71712 C13.8664192,17.2862 13.6384192,16.71392 13.6384192,16.10668 L13.6384192,2.28 C13.6384192,1.02296 14.6220346,0 15.8307269,0 L16.5614962,0 C17.7701885,0 18.7538038,1.02296 18.7538038,2.28 L18.7538038,16.10592 C18.7538038,17.36372 17.7701885,18.38592 16.5614962,18.38592 L15.8307269,18.38592 L15.8299962,18.38592 Z" id="Fill-3"></path>
            <path d="M9.01148077,5.742332 C8.60882692,5.742332 8.28071154,6.083572 8.28071154,6.502332 L8.28071154,16.106452 C8.28071154,16.307852 8.35671154,16.497852 8.49555769,16.642252 C8.63440385,16.786652 8.81709615,16.866452 9.01075,16.866452 L9.01148077,16.866452 L9.74225,16.866452 C10.1449038,16.866452 10.4730192,16.525212 10.4730192,16.106452 L10.4730192,6.502332 C10.4730192,6.083572 10.1449038,5.742332 9.74225,5.742332 L9.01148077,5.742332 Z M9.01075,18.386452 C8.42686538,18.386452 7.87732692,18.148572 7.46225,17.717652 C7.04717308,17.285972 6.81917308,16.713692 6.81917308,16.106452 L6.81917308,6.502332 C6.81917308,5.245292 7.80278846,4.222332 9.01148077,4.222332 L9.74225,4.222332 C10.9509423,4.222332 11.9345577,5.245292 11.9345577,6.502332 L11.9345577,16.106452 C11.9345577,17.363492 10.9509423,18.386452 9.74225,18.386452 L9.01148077,18.386452 L9.01075,18.386452 Z" id="Fill-6"></path>
            <path d="M2.19230769,9.953112 C1.78965385,9.953112 1.46153846,10.294352 1.46153846,10.713112 L1.46153846,16.106832 C1.46153846,16.307472 1.53753846,16.498232 1.67638462,16.642632 C1.81523077,16.787032 1.99792308,16.866072 2.19157692,16.866072 L2.19230769,16.866072 L2.92307692,16.866072 C3.32573077,16.866072 3.65384615,16.524832 3.65384615,16.106072 L3.65384615,10.713112 C3.65384615,10.294352 3.32573077,9.953112 2.92307692,9.953112 L2.19230769,9.953112 Z M2.19157692,18.386072 C1.60769231,18.386072 1.05815385,18.148952 0.643076923,17.717272 C0.228,17.285592 0,16.714072 0,16.106832 L0,10.713112 C0,9.456072 0.983615385,8.433112 2.19230769,8.433112 L2.92307692,8.433112 C4.13176923,8.433112 5.11538462,9.456072 5.11538462,10.713112 L5.11538462,16.106072 C5.11538462,17.363112 4.13176923,18.386072 2.92307692,18.386072 L2.19230769,18.386072 L2.19157692,18.386072 Z" id="Fill-1"></path>
        </g>
    </g>
</svg>