<?xml version="1.0" encoding="UTF-8"?>
<svg width="19px" height="18px" viewBox="0 0 19 18" version="1.1" xmlns="http://www.w3.org/2000/svg" xmlns:xlink="http://www.w3.org/1999/xlink">
    <!-- Generator: Sketch 43.2 (39069) - http://www.bohemiancoding.com/sketch -->
    <title>Revsh_icon</title>
    <desc>Created with Sketch.</desc>
    <defs></defs>
    <g id="Page-1" stroke="none" stroke-width="1" fill="none" fill-rule="evenodd">
        <g id="Revsh_icon" fill="#FFFFFF">
            <path d="M2.19230769,2.16 C1.78965385,2.16 1.46153846,2.48256 1.46153846,2.88 L1.46153846,15.1956 C1.46153846,15.59304 1.78965385,15.9156 2.19230769,15.9156 L16.5614231,15.9156 C16.9640769,15.9156 17.2921923,15.59304 17.2921923,15.1956 L17.2921923,2.88 C17.2921923,2.48256 16.9640769,2.16 16.5614231,2.16 L2.19230769,2.16 Z M16.5614231,17.3556 L2.19230769,17.3556 C0.983615385,17.3556 0,16.3872 0,15.1956 L0,2.88 C0,1.68912 0.983615385,0.72 2.19230769,0.72 L16.5614231,0.72 C17.7701154,0.72 18.7537308,1.68912 18.7537308,2.88 L18.7537308,15.1956 C18.7537308,16.3872 17.7701154,17.3556 16.5614231,17.3556 L16.5614231,17.3556 Z" id="Fill-1"></path>
            <path d="M6.87880385,13.17096 C6.73045769,13.17096 6.58138077,13.12632 6.45203462,13.0356 C6.12465,12.80232 6.05084231,12.35232 6.28688077,12.02976 L11.2816885,5.20416 C11.5177269,4.88232 11.9744577,4.81032 12.3018423,5.04072 C12.6292269,5.27328 12.7030346,5.72328 12.4669962,6.04584 L7.47218846,12.87216 C7.32968846,13.06656 7.10607308,13.17096 6.87880385,13.17096" id="Fill-4"></path>
            <path d="M6.49237308,5.42952 C6.00348846,5.42952 5.60595,5.8212 5.60595,6.30288 C5.60595,6.78456 6.00348846,7.17624 6.49237308,7.17624 C6.98125769,7.17624 7.37879615,6.78456 7.37879615,6.30288 C7.37879615,5.8212 6.98125769,5.42952 6.49237308,5.42952 M6.49237308,8.61624 C5.19745,8.61624 4.14441154,7.578 4.14441154,6.30288 C4.14441154,5.02704 5.19745,3.98952 6.49237308,3.98952 C7.78656538,3.98952 8.84033462,5.02704 8.84033462,6.30288 C8.84033462,7.578 7.78656538,8.61624 6.49237308,8.61624" id="Fill-6"></path>
            <path d="M12.2614308,10.735344 C11.7725462,10.735344 11.3750077,11.127024 11.3750077,11.608704 C11.3750077,12.090384 11.7725462,12.482064 12.2614308,12.482064 C12.7503154,12.482064 13.1478538,12.090384 13.1478538,11.608704 C13.1478538,11.127024 12.7503154,10.735344 12.2614308,10.735344 M12.2614308,13.922064 C10.9672385,13.922064 9.91346923,12.883824 9.91346923,11.608704 C9.91346923,10.332864 10.9672385,9.295344 12.2614308,9.295344 C13.5563538,9.295344 14.6093923,10.332864 14.6093923,11.608704 C14.6093923,12.883824 13.5563538,13.922064 12.2614308,13.922064" id="Fill-8"></path>
        </g>
    </g>
</svg>