<?xml version="1.0" encoding="UTF-8"?>
<svg width="21px" height="16px" viewBox="0 0 21 16" version="1.1" xmlns="http://www.w3.org/2000/svg" xmlns:xlink="http://www.w3.org/1999/xlink">
    <!-- Generator: Sketch 41.2 (35397) - http://www.bohemiancoding.com/sketch -->
    <title>dashboard_disactive</title>
    <desc>Created with Sketch.</desc>
    <defs></defs>
    <g id="Symbols" stroke="none" stroke-width="1" fill-rule="evenodd">
        <g id="dashboard_disactive">
            <path d="M16.690425,15.9721455 L4.347675,15.9721455 C3.529425,15.9721455 2.863425,15.3088727 2.863425,14.4943273 L2.863425,6.13287273 L4.363425,6.13287273 L4.363425,14.4943273 L16.690425,14.5176 L16.674675,6.1656 L18.174675,6.1656 L18.174675,14.4943273 C18.174675,15.3088727 17.508675,15.9721455 16.690425,15.9721455 Z" id="Fill-1"></path>
            <path d="M8.9295,14.5176 L12.10575,14.5176 L12.10575,10.0717818 L8.9295,10.0717818 L8.9295,14.5176 Z M13.60575,15.9721455 L7.4295,15.9721455 L7.4295,10.0717818 C7.4295,9.2696 8.10225,8.61723636 8.9295,8.61723636 L12.10575,8.61723636 C12.933,8.61723636 13.60575,9.2696 13.60575,10.0717818 L13.60575,15.9721455 Z" id="Fill-3"></path>
            <path d="M1.01145,9.56734545 L-0.0003,8.49316364 L8.8962,0.614618182 C9.8217,-0.205745455 11.2167,-0.205018182 12.1422,0.6168 L20.9607,8.45243636 L19.9467,9.52516364 L11.1282,1.68952727 C10.7802,1.37970909 10.2552,1.37970909 9.9072,1.6888 L1.01145,9.56734545 Z" id="Fill-5"></path>
        </g>
    </g>
</svg>