<?xml version="1.0" encoding="UTF-8"?>
<svg width="18px" height="17px" viewBox="0 0 18 17" version="1.1" xmlns="http://www.w3.org/2000/svg" xmlns:xlink="http://www.w3.org/1999/xlink">
    <!-- Generator: Sketch 41.2 (35397) - http://www.bohemiancoding.com/sketch -->
    <title>star_disactive</title>
    <desc>Created with Sketch.</desc>
    <defs></defs>
    <g id="Symbols" stroke="none" stroke-width="1" fill-rule="evenodd">
        <g id="star_disactive">
            <path d="M1.67652988,6.6736087 L4.66527988,9.5443913 C4.98327988,9.8503913 5.12802988,10.2901739 5.05227988,10.7203478 L4.34727988,14.7737391 L8.04102988,12.8601304 C8.43402988,12.6568696 8.90202988,12.6561304 9.29577988,12.8608696 L12.9895299,14.7737391 L12.2837799,10.7203478 C12.2087799,10.2901739 12.3535299,9.8503913 12.6707799,9.54513043 L15.6602799,6.6736087 L11.5300299,6.08230435 C11.0912799,6.01947826 10.7117799,5.74821739 10.5152799,5.35573913 L8.66802988,1.66747826 L6.82152988,5.35573913 C6.62502988,5.74821739 6.24477988,6.01947826 5.80602988,6.08230435 L1.67652988,6.6736087 Z M13.1927799,16.3783913 C12.9790299,16.3783913 12.7637799,16.3273913 12.5642799,16.223913 L8.66802988,14.2053478 L4.77177988,16.223913 C4.31352988,16.4604348 3.77052988,16.422 3.35202988,16.1233913 C2.93427988,15.8233043 2.72877988,15.3258696 2.81652988,14.824 L3.56052988,10.5481304 L0.408279877,7.51991304 C0.0377798774,7.1643913 -0.0927201226,6.64256522 0.0670298774,6.15843478 C0.226779877,5.67356522 0.643779877,5.32765217 1.15527988,5.25447826 L5.51127988,4.63065217 L7.45977988,0.740608696 C7.68852988,0.283826087 8.15127988,0 8.66802988,0 C9.18477988,0 9.64827988,0.283826087 9.87702988,0.740608696 L11.8247799,4.63065217 L16.1815299,5.25447826 C16.6922799,5.32765217 17.1100299,5.67356522 17.2697799,6.15843478 C17.4287799,6.64256522 17.2982799,7.1643913 16.9277799,7.51991304 L13.7762799,10.5481304 L14.5202799,14.824 C14.6072799,15.3258696 14.4017799,15.8240435 13.9840299,16.1233913 C13.7477799,16.2926522 13.4717799,16.3783913 13.1927799,16.3783913 L13.1927799,16.3783913 Z" id="Fill-1"></path>
        </g>
    </g>
</svg>