<?xml version="1.0" encoding="UTF-8" standalone="no"?>
<svg width="133px" height="133px" viewBox="0 0 133 133" version="1.1" xmlns="http://www.w3.org/2000/svg" xmlns:xlink="http://www.w3.org/1999/xlink" xmlns:sketch="http://www.bohemiancoding.com/sketch/ns">
    <!-- Generator: Sketch 3.5.1 (25234) - http://www.bohemiancoding.com/sketch -->
    <title>logo</title>
    <desc>Created with Sketch.</desc>
    <defs></defs>
    <g id="Page-1" stroke="none" stroke-width="1" fill="none" fill-rule="evenodd" sketch:type="MSPage">
        <g id="logo" sketch:type="MSLayerGroup">
            <circle id="Oval" fill="#FF7700" sketch:type="MSShapeGroup" cx="66.2" cy="66.2" r="66.2"></circle>
            <g id="Group" transform="translate(27.000000, 22.000000)" fill="#FFFFFF" sketch:type="MSShapeGroup">
                <path d="M9.1,31.7 C4.3,31.7 0.1,35.6 0.1,40.3 L0.1,72.2 C0.1,77 4.3,80.8 9.1,80.8 C13.9,80.8 18.1,76.9 18.1,72.2 L18.1,40.3 C18.1,35.5 13.8,31.7 9.1,31.7 L9.1,31.7 Z" id="Shape"></path>
                <path d="M67.6,0.8 C62.3,0.8 58.1,5.1 58.1,10.4 L58.1,72.1 C58.1,77.4 62.3,81.7 67.6,81.7 C72.9,81.7 77.1,77.4 77.1,72.1 L77.1,10.4 C77.1,5.1 72.8,0.8 67.6,0.8 L67.6,0.8 Z" id="Shape"></path>
                <path d="M38.1,18.5 C33.5,18.5 30.1,22.2 30.1,26.8 L30.1,73.5 C30.1,78.1 33.5,81.8 38.1,81.8 C42.7,81.8 46.1,78.1 46.1,73.5 L46.1,26.8 C46.1,22.2 42.6,18.5 38.1,18.5 L38.1,18.5 Z" id="Shape"></path>
            </g>
        </g>
    </g>
</svg>