<?xml version="1.0" encoding="UTF-8"?>
<svg width="145px" height="32px" viewBox="0 0 145 32" version="1.1" xmlns="http://www.w3.org/2000/svg" xmlns:xlink="http://www.w3.org/1999/xlink">
    <!-- Generator: Sketch 43.2 (39069) - http://www.bohemiancoding.com/sketch -->
    <title>LOGO CPA Copy</title>
    <desc>Created with Sketch.</desc>
    <defs></defs>
    <g id="Page-1" stroke="none" stroke-width="1" fill="none" fill-rule="evenodd">
        <g id="LOGO-CPA-Copy">
            <path d="M29.5541231,16.681199 C29.5541231,24.9855426 22.9385538,31.7174997 14.7770615,31.7174997 C6.61601538,31.7174997 0,24.9855426 0,16.681199 C0,8.37685549 6.61601538,1.64444444 14.7770615,1.64444444 C22.9385538,1.64444444 29.5541231,8.37685549 29.5541231,16.681199 Z" id="Fill-1" fill="#FF7700"></path>
            <path d="M9.52404491,23.1753422 C9.52404491,24.2583299 8.66118337,25.1356612 7.59688337,25.1356612 C6.53302952,25.1356612 5.67039106,24.2583299 5.67039106,23.1753422 L5.67039106,15.9387778 C5.67039106,14.8555631 6.53302952,13.9777778 7.59688337,13.9777778 C8.66118337,13.9777778 9.52404491,14.8555631 9.52404491,15.9387778 L9.52404491,23.1753422 Z" id="Fill-3" fill="#FFFFFF"></path>
            <path d="M22.8967388,23.5860245 C22.8967388,24.7845521 21.9419695,25.7563129 20.7639003,25.7563129 C19.5860541,25.7563129 18.6312849,24.7845521 18.6312849,23.5860245 L18.6312849,9.57028834 C18.6312849,8.37153374 19.5860541,7.4 20.7639003,7.4 C21.9419695,7.4 22.8967388,8.37153374 22.8967388,9.57028834 L22.8967388,23.5860245 Z" id="Fill-5" fill="#FFFFFF"></path>
            <path d="M15.8496765,23.1617478 C15.8496765,24.2006987 15.0216149,25.0435269 14.0001457,25.0435269 C12.9786765,25.0435269 12.150838,24.2006987 12.150838,23.1617478 L12.150838,12.570668 C12.150838,11.5314901 12.9786765,10.6888889 14.0001457,10.6888889 C15.0216149,10.6888889 15.8496765,11.5314901 15.8496765,12.570668 L15.8496765,23.1617478 Z" id="Fill-7" fill="#FFFFFF"></path>
            <path d="M42.2062087,3.30298773 L46.1653779,3.30298773 L46.1653779,0 L42.2062087,0 L42.2062087,3.30298773 Z M47.8685702,16.9351043 C46.6951856,17.3337055 44.6462241,17.5675092 43.2881318,17.5675092 L42.2062087,17.5675092 L42.2062087,7.77658282 C41.5615164,7.87055828 40.9627779,8.01084049 40.5027933,8.15134969 L40.5027933,5.38769939 C41.699601,4.98932515 43.7485625,4.75506748 45.0834548,4.75506748 L46.1653779,4.75506748 L46.1653779,14.5457669 C46.8100702,14.4524724 47.4085856,14.3355706 47.8685702,14.171 L47.8685702,16.9351043 Z" id="Fill-9" fill="#FFFFFF"></path>
            <path d="M56.2412192,13.08491 L56.2412192,8.23586708 L54.7909961,8.23586708 C52.8116346,8.23586708 51.7524653,9.14951738 51.7524653,11.1638609 L51.7524653,12.9911616 C51.7524653,13.9978793 52.1901422,14.4432413 53.1797115,14.4432413 C53.8935576,14.4432413 54.7909961,13.9978793 55.5280422,13.529818 L56.2412192,13.08491 Z M56.2412192,16.0126769 L55.3435576,16.6455358 C54.1927038,17.4411493 53.1797115,17.933272 51.8216192,17.933272 C49.2205422,17.933272 47.7932961,16.3636094 47.7932961,13.7170879 L47.7932961,11.1638609 C47.7932961,7.32267076 50.6705422,4.93333333 54.4458961,4.93333333 L60.2008346,4.93333333 L60.2008346,22.149683 L56.2412192,22.149683 L56.2412192,16.0126769 Z" id="Fill-11" fill="#FFFFFF"></path>
            <path d="M74.6152328,11.5386278 C74.6152328,9.24326585 73.8781867,8.42336401 72.0824174,8.42336401 C70.2873174,8.42336401 69.5734713,9.24326585 69.5734713,11.5386278 C69.5734713,13.8110634 70.2873174,14.6307382 72.0824174,14.6307382 C73.8781867,14.6307382 74.6152328,13.8110634 74.6152328,11.5386278 M65.6145251,11.5386278 C65.6145251,6.94790389 67.9621867,4.93333333 72.0824174,4.93333333 C76.4103328,4.93333333 78.5744021,6.94790389 78.5744021,11.5386278 C78.5744021,16.4578119 76.4103328,18.1209959 72.0824174,18.1209959 C67.9621867,18.1209959 65.6145251,16.4578119 65.6145251,11.5386278" id="Fill-12" fill="#FFFFFF"></path>
            <path d="M84.2384498,9.7816953 L84.2384498,14.6305112 L85.7116498,14.6305112 C87.6680344,14.6305112 88.7504036,13.7173149 88.7504036,11.7027444 L88.7504036,9.87567076 C88.7504036,8.86849898 88.2895267,8.42336401 87.2999575,8.42336401 C86.5861113,8.42336401 85.7116498,8.86849898 84.9516267,9.33678732 L84.2384498,9.7816953 Z M78.575419,5.75323517 C79.7726728,5.35508793 81.8211882,5.12060327 83.1565267,5.12060327 L84.2384498,5.12060327 L84.2384498,6.85438241 L85.1358882,6.22129652 C86.2869651,5.40184867 87.2999575,4.93333333 88.6582728,4.93333333 C91.2589036,4.93333333 92.686819,6.50276892 92.686819,9.14951738 L92.686819,11.7027444 C92.686819,15.5441616 89.8091267,17.933272 86.0337728,17.933272 L84.2384498,17.933272 L84.2384498,22.336953 L80.2792805,22.336953 L80.2792805,8.14211861 C79.6343651,8.23609407 79.0358498,8.37660327 78.575419,8.51711247 L78.575419,5.75323517 Z" id="Fill-13" fill="#FFFFFF"></path>
            <path d="M101.876215,17.4550211 C101.024507,17.7601009 100.149823,17.9239905 99.3206456,17.9239905 C96.3974456,17.9239905 94.3255072,16.3309475 94.3255072,12.98188 L94.3255072,8.22658555 L92.3463687,8.22658555 L92.3463687,4.92382481 L94.3255072,4.92382481 L94.3255072,1.64444444 L98.2848995,1.64444444 L98.2848995,4.92382481 L101.508361,4.92382481 L101.508361,8.22658555 L98.2848995,8.22658555 L98.2848995,12.0682297 C98.2848995,13.9189107 98.9757687,14.6214567 100.26493,14.6214567 C100.747892,14.6214567 101.277923,14.4571132 101.876215,14.1763217 L101.876215,17.4550211 Z" id="Fill-14" fill="#FFFFFF"></path>
            <path d="M102.150566,3.30298773 L106.109958,3.30298773 L106.109958,0 L102.150566,0 L102.150566,3.30298773 Z M107.81315,16.9351043 C106.639543,17.3337055 104.590135,17.5675092 103.232043,17.5675092 L102.150566,17.5675092 L102.150566,8.03921472 C101.41352,8.08597546 101.045666,8.05760123 100.446927,8.05760123 L100.446927,4.75506748 C102.20812,4.74371779 103.69225,4.75506748 105.027589,4.75506748 L106.109958,4.75506748 L106.109958,14.5457669 C106.754204,14.4524724 107.35272,14.3355706 107.81315,14.171 L107.81315,16.9351043 Z" id="Fill-15" fill="#FFFFFF"></path>
            <path d="M117.548194,11.5386278 C117.548194,9.24326585 116.811594,8.42336401 115.016048,8.42336401 C113.221394,8.42336401 112.506655,9.24326585 112.506655,11.5386278 C112.506655,13.8110634 113.221394,14.6307382 115.016048,14.6307382 C116.811594,14.6307382 117.548194,13.8110634 117.548194,11.5386278 M108.547486,11.5386278 C108.547486,6.94790389 110.895817,4.93333333 115.016048,4.93333333 C119.343963,4.93333333 121.507809,6.94790389 121.507809,11.5386278 C121.507809,16.4578119 119.343963,18.1209959 115.016048,18.1209959 C110.895817,18.1209959 108.547486,16.4578119 108.547486,11.5386278" id="Fill-16" fill="#FFFFFF"></path>
            <path d="M136.796543,17.3008671 C135.599735,17.6994683 133.550774,17.933272 132.215882,17.933272 L131.133735,17.933272 L131.133735,10.0633947 C131.133735,9.05576892 130.949697,8.42336401 129.959905,8.42336401 C129.245835,8.42336401 128.348397,8.98562781 127.519666,9.52473824 L126.806712,9.96964622 L126.806712,17.933272 L122.846651,17.933272 L122.846651,8.1423456 C122.201958,8.23632106 119.53842,8.90209407 119.078212,9.04260327 L119.078212,6.27849898 C120.27502,5.88012474 124.389005,5.12083027 125.723897,5.12083027 L126.806712,5.12083027 L126.806712,7.06503272 L127.358382,6.69003885 C128.786074,5.63610634 129.867774,4.93333333 131.479282,4.93333333 C133.919074,4.93333333 135.093128,6.50299591 135.093128,8.96247444 L135.093128,14.9115297 C135.714397,14.8182352 136.312912,14.7013333 136.796543,14.5367628 L136.796543,17.3008671 Z" id="Fill-17" fill="#FFFFFF"></path>
            <path d="M141.722938,3.63518064 C141.606045,3.58932788 141.441192,3.56617451 141.228822,3.56617451 L141.021584,3.56617451 L141.021584,4.52726653 L141.352407,4.52726653 C141.551392,4.52726653 141.706876,4.48663463 141.818638,4.40559782 C141.930176,4.32456101 141.985945,4.19335855 141.985945,4.01221745 C141.985945,3.83107635 141.898053,3.70554874 141.722938,3.63518064 L141.722938,3.63518064 Z M140.168984,6.29486776 L140.168984,2.98257328 C140.370645,2.98257328 140.672915,2.98302727 141.075568,2.98438923 C141.477776,2.98597819 141.701522,2.98779414 141.746584,2.99051806 C142.004461,3.00958555 142.218392,3.06633401 142.388153,3.16076346 C142.677707,3.32306408 142.822707,3.58660395 142.822707,3.95138309 C142.822707,4.22990457 142.746192,4.43079414 142.593384,4.55473279 C142.440799,4.67844444 142.252745,4.75221745 142.029668,4.77650579 C142.23423,4.81986162 142.388153,4.8836469 142.491884,4.96808862 C142.683061,5.12539536 142.778538,5.37327267 142.778538,5.71103954 L142.778538,6.00703954 C142.778538,6.03949966 142.780768,6.07195978 142.78523,6.10419291 C142.789245,6.13688003 142.797053,6.16911316 142.808653,6.20157328 L142.838545,6.29486776 L142.025653,6.29486776 C141.999107,6.18931561 141.981038,6.03677573 141.971892,5.83679414 C141.962522,5.63658555 141.944676,5.5015242 141.91813,5.43138309 C141.875745,5.31516224 141.795884,5.23389843 141.678992,5.18804567 C141.615415,5.1610334 141.518376,5.14355487 141.388099,5.13538309 L141.200938,5.12312543 L141.021584,5.12312543 L141.021584,6.29486776 L140.168984,6.29486776 Z M139.730638,2.90130948 C139.263068,3.38798432 139.029507,3.96500273 139.029507,4.63259168 C139.029507,5.32446898 139.267084,5.91238309 139.742684,6.39633401 C140.215384,6.88005794 140.786461,7.1220334 141.455915,7.1220334 C142.122692,7.1220334 142.69243,6.87869598 143.165353,6.39224813 C143.638053,5.90307635 143.874515,5.3165242 143.874515,4.63259168 C143.874515,3.96772665 143.639392,3.39048125 143.169145,2.90130948 C142.693768,2.40396592 142.122692,2.15518064 141.455915,2.15518064 C140.781107,2.15518064 140.206015,2.40396592 139.730638,2.90130948 L139.730638,2.90130948 Z M143.512015,6.77722972 C142.940715,7.33949352 142.255422,7.62073892 141.455915,7.62073892 C140.629861,7.62073892 139.933638,7.3329107 139.367915,6.75702727 C138.802192,6.18137082 138.519553,5.47314997 138.519553,4.63259168 C138.519553,3.75957328 138.824945,3.03387389 139.43573,2.45526653 C140.009484,1.91479414 140.682953,1.64444444 141.455915,1.64444444 C142.26613,1.64444444 142.957892,1.93635855 143.531645,2.52018678 C144.105622,3.104015 144.392499,3.80814997 144.392499,4.63259168 C144.392499,5.48132175 144.098707,6.19612543 143.512015,6.77722972 L143.512015,6.77722972 Z" id="Fill-18" fill="#FFFFFF"></path>
            <path d="M47,29.4224325 C46.9037378,30.2458115 46.5995904,30.8814426 46.0875576,31.3288144 C45.5755248,31.7761862 44.8945212,32 44.0455709,32 C43.124936,32 42.3870968,31.6702903 41.8323093,31.0106152 C41.2772657,30.3511958 41,29.46873 41,28.3634736 L41,27.6150403 C41,26.8911626 41.1292883,26.254764 41.3881208,25.7058447 C41.6466974,25.1569254 42.0133129,24.7351324 42.4879672,24.4409771 C42.9623656,24.1468218 43.5120328,24 44.1364567,24 C44.9644137,24 45.6280082,24.23072 46.1277522,24.6924159 C46.6272401,25.1541118 46.9180748,25.793324 47,26.6095409 L45.9672299,26.6095409 C45.8778802,25.9874664 45.6840758,25.5367694 45.3863287,25.2579614 C45.0883257,24.9788976 44.671787,24.8394935 44.1364567,24.8394935 C43.4800307,24.8394935 42.9651818,25.0822356 42.5924219,25.5674639 C42.219406,26.0526922 42.0330261,26.7430618 42.0330261,27.6385727 L42.0330261,28.3934007 C42.0330261,29.2390331 42.2096774,29.9117534 42.56298,30.41105 C42.9162826,30.9106024 43.4103943,31.1602507 44.0455709,31.1602507 C44.6162314,31.1602507 45.0542755,31.0313339 45.359703,30.7727331 C45.6646185,30.514388 45.8671275,30.0642026 45.9672299,29.4224325 L47,29.4224325 Z" id="Fill-19" fill="#FFFFFF"></path>
            <path d="M50.916857,28.0055191 L52.564413,28.0055191 C53.0545911,28.0055191 53.4303335,27.8725361 53.6914116,27.6065703 C53.9524897,27.3406045 54.0829146,26.9561104 54.0829146,26.4533509 C54.0829146,25.9763469 53.9524897,25.5947438 53.6914116,25.3085414 C53.4303335,25.022339 53.0724075,24.8735874 52.6169484,24.8628121 L50.916857,24.8628121 L50.916857,28.0055191 Z M50.916857,28.8683311 L50.916857,32 L50,32 L50,24 L52.564413,24 C53.3252627,24 53.9214253,24.2233903 54.3529009,24.6704336 C54.784148,25.1172142 55,25.7088042 55,26.4452037 C55,27.2218134 54.7889447,27.8197109 54.3670626,28.239159 C53.9454089,28.6586071 53.3410233,28.8683311 52.5548196,28.8683311 L50.916857,28.8683311 Z" id="Fill-20" fill="#FFFFFF"></path>
            <path d="M59.147754,29.0438896 L61.8527688,29.0438896 L60.4975169,25.3022339 L59.147754,29.0438896 Z M62.1640715,29.9064389 L58.8307009,29.9064389 L58.0821105,32 L57,32 L60.0382734,24 L60.956499,24 L64,32 L62.9236399,32 L62.1640715,29.9064389 Z" id="Fill-21" fill="#FFFFFF"></path>
            <path d="M72.916857,28.0055191 L74.564413,28.0055191 C75.0545911,28.0055191 75.4303335,27.8725361 75.6914116,27.6065703 C75.9524897,27.3406045 76.0829146,26.9561104 76.0829146,26.4533509 C76.0829146,25.9763469 75.9524897,25.5947438 75.6914116,25.3085414 C75.4303335,25.022339 75.0724075,24.8735874 74.6169484,24.8628121 L72.916857,24.8628121 L72.916857,28.0055191 Z M72.916857,28.8683311 L72.916857,32 L72,32 L72,24 L74.564413,24 C75.3252627,24 75.9214253,24.2233903 76.3529009,24.6704336 C76.784148,25.1172142 77,25.7088042 77,26.4452037 C77,27.2218134 76.7889447,27.8197109 76.3670626,28.239159 C75.9454089,28.6586071 75.3410233,28.8683311 74.5548196,28.8683311 L72.916857,28.8683311 Z" id="Fill-22" fill="#FFFFFF"></path>
            <path d="M81.9127936,27.9011827 L83.3084582,27.9011827 C83.7594244,27.9011827 84.1180703,27.7653088 84.3846223,27.4938239 C84.6511744,27.222339 84.7842241,26.8591327 84.7842241,26.4039422 C84.7842241,25.9085414 84.6575101,25.5287779 84.4036295,25.2646518 C84.1497488,25.0002628 83.7831832,24.8664915 83.3034801,24.8625493 L81.9127936,24.8625493 L81.9127936,27.9011827 Z M83.5306603,28.7637319 L81.9127936,28.7637319 L81.9127936,32 L81,32 L81,24 L83.2799475,24 C84.0558447,24 84.652532,24.2052562 85.0704621,24.6155059 C85.4883921,25.0257556 85.6974702,25.6228647 85.6974702,26.4065703 C85.6974702,26.904862 85.5816174,27.3387648 85.3496855,27.7088042 C85.1179798,28.0788436 84.7953116,28.3555848 84.3823596,28.538502 L86,31.9340342 L86,32 L85.0256596,32 L83.5306603,28.7637319 Z" id="Fill-23" fill="#FFFFFF"></path>
            <path d="M94.0213635,27.7485612 C94.0213635,26.8254252 93.8436747,26.116639 93.4885421,25.6227139 C93.1331645,25.1290446 92.6363711,24.88221 91.9974266,24.88221 C91.3756383,24.88221 90.8864425,25.1290446 90.5295944,25.6227139 C90.1725011,26.116639 89.9889302,26.8021486 89.9786365,27.6789871 L89.9786365,28.251183 C89.9786365,29.1461824 90.1587762,29.8493413 90.5193007,30.3609157 C90.8795801,30.8724901 91.3756383,31.1282773 92.0077203,31.1282773 C92.6429884,31.1282773 93.1351252,30.8868142 93.4833953,30.4036322 C93.8319105,29.920706 94.0113149,29.2280343 94.0213635,28.3261287 L94.0213635,27.7485612 Z M95,28.251183 C95,29.0141962 94.8772109,29.6800102 94.6311425,30.2486251 C94.3850741,30.8172401 94.0368041,31.2513109 93.5860872,31.5508377 C93.1351252,31.8501087 92.6089212,32 92.0077203,32 C91.4202443,32 90.8991871,31.8493413 90.4447939,31.548024 C89.9906458,31.2469625 89.6379641,30.8172401 89.386994,30.2593682 C89.1357788,29.7014964 89.0068625,29.0551221 89,28.3207571 L89,27.7593043 C89,27.0106152 89.1247498,26.3494053 89.3740043,25.7754189 C89.6235039,25.2014324 89.9759405,24.76199 90.4320493,24.4570917 C90.8881582,24.1521934 91.4099506,24 91.9974266,24 C92.5951963,24 93.1221355,24.1506587 93.5782444,24.4517202 C94.0343532,24.7530375 94.3850741,25.1896662 94.6311425,25.7618621 C94.8772109,26.3340581 95,26.9998721 95,27.7593043 L95,28.251183 Z" id="Fill-24" fill="#FFFFFF"></path>
            <path d="M105,30.8717227 C104.736283,31.2497762 104.36795,31.5321652 103.895767,31.7191457 C103.423328,31.9063819 102.873385,32 102.245939,32 C101.611331,32 101.048088,31.8513876 100.556209,31.5536514 C100.064075,31.2559151 99.6834634,30.8325873 99.4143752,30.2834122 C99.1450313,29.7344929 99.0069063,29.0980944 99,28.3744724 L99,27.6953575 C99,26.5223174 99.2734365,25.6132498 99.8208211,24.9678987 C100.368206,24.3225476 101.137102,24 102.128277,24 C102.941169,24 103.595473,24.2076992 104.090932,24.6230976 C104.586392,25.0382402 104.889244,25.6275739 105,26.3903312 L103.97327,26.3903312 C103.780662,25.3564394 103.167541,24.8394935 102.133649,24.8394935 C101.445581,24.8394935 100.924031,25.0814682 100.56951,25.564906 C100.214733,26.0483438 100.035682,26.7486891 100.032101,27.6654304 L100.032101,28.3025962 C100.032101,29.1766211 100.231615,29.8715948 100.630899,30.387006 C101.030183,30.902673 101.570405,31.1605065 102.251311,31.1605065 C102.636271,31.1605065 102.973142,31.11779 103.261926,31.0323571 C103.55071,30.9469242 103.789615,30.802916 103.978642,30.6003325 L103.978642,28.8556081 L102.176365,28.8556081 L102.176365,28.0161146 L105,28.0161146 L105,30.8717227 Z" id="Fill-25" fill="#FFFFFF"></path>
            <path d="M108.912794,27.9011827 L110.308458,27.9011827 C110.759424,27.9011827 111.11807,27.7653088 111.384622,27.4938239 C111.651174,27.222339 111.784224,26.8591327 111.784224,26.4039422 C111.784224,25.9085414 111.65751,25.5287779 111.403629,25.2646518 C111.149749,25.0002628 110.783183,24.8664915 110.30348,24.8625493 L108.912794,24.8625493 L108.912794,27.9011827 Z M110.53066,28.7637319 L108.912794,28.7637319 L108.912794,32 L108,32 L108,24 L110.279948,24 C111.055845,24 111.652532,24.2052562 112.070462,24.6155059 C112.488392,25.0257556 112.69747,25.6228647 112.69747,26.4065703 C112.69747,26.904862 112.581617,27.3387648 112.349685,27.7088042 C112.11798,28.0788436 111.795312,28.3555848 111.38236,28.538502 L113,31.9340342 L113,32 L112.02566,32 L110.53066,28.7637319 Z" id="Fill-26" fill="#FFFFFF"></path>
            <path d="M119.147754,29.0438896 L121.852769,29.0438896 L120.497517,25.3022339 L119.147754,29.0438896 Z M122.164072,29.9064389 L118.830701,29.9064389 L118.08211,32 L117,32 L120.038273,24 L120.956499,24 L124,32 L122.92364,32 L122.164072,29.9064389 Z" id="Fill-27" fill="#FFFFFF"></path>
            <polygon id="Fill-28" fill="#FFFFFF" points="128.198092 24 130.497689 30.5274639 132.797056 24 134 24 134 32 133.07249 32 133.07249 28.8846255 133.159603 25.5219448 130.8503 32 130.139995 32 127.836007 25.538502 127.92751 28.8846255 127.92751 32 127 32 127 24"></polygon>
        </g>
    </g>
</svg>